<svg width="383" height="302" viewBox="0 0 183 112" fill="none" xmlns="http://www.w3.org/2000/svg">
<path d="M165.154 80.984L165.346 80.648L165.586 80.24C165.954 79.648 166.162 79.248 166.21 79.04C166.402 78.976 166.594 78.968 166.786 79.016C167.026 79.064 167.194 79.176 167.29 79.352C167.21 79.592 166.946 80.072 166.498 80.792L166.21 81.248L165.922 81.728C165.682 82.112 165.482 82.448 165.322 82.736C164.394 84.4 164.298 85.376 165.034 85.664C165.354 85.84 166.082 85.528 167.218 84.728C168.274 83.992 169.026 83.328 169.474 82.736C169.666 82.736 169.778 82.816 169.81 82.976C168.146 85.184 166.618 86.296 165.226 86.312C164.522 86.312 164.042 86.016 163.786 85.424C163.498 84.784 163.65 83.84 164.242 82.592C164.13 82.704 164.018 82.808 163.906 82.904C162.578 84.056 161.466 84.464 160.57 84.128C160.49 84.096 160.41 84.056 160.33 84.008C160.234 84.28 160.146 84.568 160.066 84.872C159.81 85.704 159.618 86.232 159.49 86.456C159.442 86.584 159.322 86.6 159.13 86.504C158.922 86.408 158.802 86.232 158.77 85.976C158.69 85.272 159.146 84.032 160.138 82.256L160.426 81.752L160.69 81.272C160.93 80.856 161.106 80.552 161.218 80.36C161.554 79.72 161.746 79.272 161.794 79.016C161.794 78.904 161.858 78.824 161.986 78.776C162.098 78.744 162.234 78.752 162.394 78.8C162.554 78.848 162.674 78.92 162.754 79.016C162.834 79.128 162.842 79.248 162.778 79.376C162.682 79.728 162.306 80.44 161.65 81.512C161.506 81.736 161.378 81.944 161.266 82.136C160.898 82.984 160.802 83.496 160.978 83.672C161.154 83.864 161.93 83.448 163.306 82.424C163.754 82.104 164.226 81.744 164.722 81.344C164.866 81.232 165.01 81.112 165.154 80.984Z" fill="white"/>
<path d="M159.829 82.76C160.005 82.744 160.117 82.816 160.165 82.976C158.325 85.376 156.709 86.576 155.317 86.576C154.981 86.576 154.685 86.504 154.429 86.36C154.125 86.2 153.941 85.976 153.877 85.688C153.557 84.504 153.925 82.752 154.981 80.432L154.669 80.888L154.333 81.368L153.661 82.352C153.133 83.088 152.669 83.696 152.269 84.176C151.229 85.456 150.461 86.064 149.965 86C149.549 85.936 149.221 85.784 148.981 85.544C148.709 85.288 148.621 84.976 148.717 84.608C149.005 83.536 149.709 82.344 150.829 81.032C152.045 79.592 153.061 78.944 153.877 79.088C154.341 79.152 154.661 79.312 154.837 79.568C155.477 78.72 155.989 78.12 156.373 77.768C156.533 77.704 156.709 77.704 156.901 77.768C157.109 77.832 157.261 77.952 157.357 78.128C157.133 78.464 156.853 78.976 156.517 79.664C156.101 80.512 155.749 81.312 155.461 82.064C154.645 84.24 154.581 85.512 155.269 85.88C155.589 86.04 156.333 85.696 157.501 84.848C158.589 84.064 159.365 83.368 159.829 82.76ZM149.845 85.304C150.213 85.336 150.877 84.76 151.837 83.576C152.157 83.176 152.597 82.592 153.157 81.824L153.829 80.888L154.525 79.976C154.429 79.672 154.205 79.56 153.853 79.64C153.453 79.704 152.917 80.12 152.245 80.888C151.653 81.544 151.085 82.304 150.541 83.168C149.709 84.544 149.477 85.256 149.845 85.304Z" fill="white"/>
<path d="M136.792 83.624C136.6 83.928 136.376 84.232 136.12 84.536L135.472 85.184C134.576 85.968 133.76 86.312 133.024 86.216C132.8 86.168 132.632 86.128 132.52 86.096V86.072C131.704 85.784 131.296 85.224 131.296 84.392C131.328 84.264 131.392 84.208 131.488 84.224C131.584 84.24 131.648 84.28 131.68 84.344C131.696 84.984 132.024 85.4 132.664 85.592C133.32 85.768 134.056 85.44 134.872 84.608C135.192 84.256 135.536 83.776 135.904 83.168C136.432 82.224 136.704 81.384 136.72 80.648C136.72 79.832 136.352 79.4 135.616 79.352C135.104 79.32 134.616 79.488 134.152 79.856C133.96 80.016 133.816 80.152 133.72 80.264C133.624 80.36 133.56 80.424 133.528 80.456C133.16 80.872 132.912 81.264 132.784 81.632C132.656 82.032 132.728 82.328 133 82.52C133.032 82.536 133.048 82.552 133.048 82.568C133.048 82.584 133.032 82.608 133 82.64L132.88 82.664C132.832 82.68 132.792 82.688 132.76 82.688C132.248 82.336 132.016 81.88 132.064 81.32C132.128 80.824 132.392 80.352 132.856 79.904C132.968 79.792 133.064 79.704 133.144 79.64L133.24 79.568C133.96 78.96 134.768 78.736 135.664 78.896C136.976 79.136 137.616 79.888 137.584 81.152C137.584 81.456 137.544 81.76 137.464 82.064C137.704 81.76 137.976 81.472 138.28 81.2C139.096 80.512 139.664 80.048 139.984 79.808C140.096 79.68 140.264 79.696 140.488 79.856C140.728 80.032 140.856 80.192 140.872 80.336C140.872 80.528 140.728 80.88 140.44 81.392C140.328 81.6 140.176 81.856 139.984 82.16L139.72 82.568L139.48 82.976C138.616 84.304 138.304 85.112 138.544 85.4C138.688 85.56 139.352 85.2 140.536 84.32L140.896 84.104C140.736 83.176 141.28 82.064 142.528 80.768C143.12 80.176 143.736 79.712 144.376 79.376C145.048 79.024 145.616 78.904 146.08 79.016C146.736 79.176 147.16 79.52 147.352 80.048C147.528 80.496 147.488 80.936 147.232 81.368C147.168 81.464 147.072 81.52 146.944 81.536C146.816 81.536 146.76 81.472 146.776 81.344C146.936 80.688 146.808 80.16 146.392 79.76C146.056 79.424 145.44 79.6 144.544 80.288C144.208 80.528 143.872 80.816 143.536 81.152C143.248 81.456 143.032 81.704 142.888 81.896C141.784 83.432 141.528 84.528 142.12 85.184C142.6 85.68 143.336 85.872 144.328 85.76C145.416 85.648 146.424 85.304 147.352 84.728C147.896 84.392 148.704 83.752 149.776 82.808C149.872 82.744 149.96 82.744 150.04 82.808C150.104 82.872 150.112 82.944 150.064 83.024C149.472 84.08 148.536 84.92 147.256 85.544C145.992 86.184 144.72 86.44 143.44 86.312C142.32 86.216 141.544 85.68 141.112 84.704C141.08 84.72 141.056 84.736 141.04 84.752C139.904 85.728 138.952 86.072 138.184 85.784C137.448 85.512 137.48 84.704 138.28 83.36C138.424 83.12 138.584 82.872 138.76 82.616L138.976 82.28C139.056 82.184 139.136 82.08 139.216 81.968L139.984 80.696C139.488 80.952 138.632 81.728 137.416 83.024C137.288 83.136 137.176 83.24 137.08 83.336C137.016 83.4 136.92 83.496 136.792 83.624Z" fill="white"/>
<path d="M131.672 82.784C131.736 82.736 131.808 82.736 131.888 82.784C131.984 82.832 132.008 82.904 131.96 83L131.912 83.048C131.896 83.08 131.864 83.128 131.816 83.192C131.704 83.32 131.584 83.464 131.456 83.624C131.056 84.088 130.648 84.504 130.232 84.872C128.904 86.024 127.792 86.432 126.896 86.096C126.048 85.776 126.088 84.832 127.016 83.264C127.176 82.992 127.36 82.704 127.568 82.4L127.832 81.992C127.912 81.896 128 81.776 128.096 81.632C128.464 81.12 128.64 80.848 128.624 80.816C128.608 80.848 128.528 80.952 128.384 81.128C128.224 81.336 128.04 81.568 127.832 81.824C127.272 82.512 126.712 83.152 126.152 83.744C124.424 85.536 123.208 86.368 122.504 86.24C122.136 86.176 121.928 85.96 121.88 85.592C121.784 84.888 122.144 83.864 122.96 82.52L123.2 82.136L123.44 81.776C123.632 81.456 123.776 81.216 123.872 81.056C124.16 80.56 124.328 80.184 124.376 79.928C124.376 79.816 124.44 79.736 124.568 79.688C124.68 79.656 124.816 79.664 124.976 79.712C125.136 79.76 125.256 79.832 125.336 79.928C125.432 80.04 125.44 80.16 125.36 80.288C125.312 80.48 125.12 80.872 124.784 81.464C124.656 81.672 124.488 81.96 124.28 82.328L124.016 82.76L123.728 83.216C122.832 84.752 122.48 85.56 122.672 85.64C122.912 85.72 123.976 84.864 125.864 83.072C127.8 81.216 128.872 79.92 129.08 79.184C129.144 78.992 129.312 78.992 129.584 79.184C129.856 79.392 130 79.576 130.016 79.736C130.016 79.96 129.848 80.376 129.512 80.984C129.384 81.224 129.208 81.52 128.984 81.872L128.696 82.352L128.408 82.808C127.432 84.44 127.064 85.384 127.304 85.64C127.48 85.832 128.256 85.416 129.632 84.392C130.08 84.072 130.552 83.712 131.048 83.312C131.208 83.184 131.36 83.056 131.504 82.928C131.552 82.896 131.592 82.864 131.624 82.832L131.672 82.784ZM127.016 76.064C126.616 76.448 126.432 76.856 126.464 77.288C126.512 77.768 126.832 78.024 127.424 78.056C127.904 78.072 128.344 77.872 128.744 77.456C129.144 77.024 129.336 76.56 129.32 76.064H129.92C129.92 77.584 129.152 78.384 127.616 78.464C126.816 78.496 126.264 78.28 125.96 77.816C125.64 77.32 125.728 76.736 126.224 76.064H127.016Z" fill="white"/>
<path d="M119.581 84.032C119.677 84.112 119.701 84.2 119.653 84.296C119.605 84.392 119.525 84.424 119.413 84.392C119.013 84.216 118.621 84.08 118.237 83.984C116.605 86.672 115.661 88.512 115.405 89.504C115.021 90.928 115.325 91.76 116.317 92C116.701 92.08 117.101 92.032 117.517 91.856C117.933 91.664 118.245 91.368 118.453 90.968C118.517 90.904 118.589 90.904 118.669 90.968C118.765 91.016 118.789 91.088 118.741 91.184C118.421 91.744 117.957 92.112 117.349 92.288C116.789 92.448 116.237 92.416 115.693 92.192C115.117 91.968 114.701 91.592 114.445 91.064C114.157 90.472 114.125 89.776 114.349 88.976C114.653 87.904 115.573 86.144 117.109 83.696C116.469 83.568 115.669 83.464 114.709 83.384C111.061 86.456 107.541 88.768 104.149 90.32C100.405 92.016 97.9891 92.176 96.9011 90.8C95.8771 89.536 96.3331 88.024 98.2691 86.264C100.045 84.68 102.549 83.592 105.781 83C108.453 82.504 111.245 82.4 114.157 82.688C118.669 78.848 121.253 75.68 121.909 73.184C122.405 71.248 122.069 69.792 120.901 68.816C119.829 67.92 118.245 67.552 116.149 67.712C114.069 67.888 111.933 68.528 109.741 69.632C107.373 70.832 105.373 72.384 103.741 74.288C102.877 75.296 102.341 76.24 102.133 77.12C101.957 77.904 102.061 78.56 102.445 79.088C103.341 80.368 105.437 80.176 108.733 78.512C108.877 78.496 108.957 78.552 108.973 78.68C109.005 78.808 108.965 78.904 108.853 78.968C107.653 79.88 106.437 80.4 105.205 80.528C104.069 80.656 103.125 80.432 102.373 79.856C101.621 79.28 101.237 78.48 101.221 77.456C101.205 76.32 101.669 75.096 102.613 73.784C104.901 70.584 108.205 68.448 112.525 67.376C114.429 66.896 116.189 66.76 117.805 66.968C119.485 67.176 120.773 67.728 121.669 68.624V68.6C123.301 70.088 123.629 72.352 122.653 75.392C122.269 76.576 121.661 77.944 120.829 79.496C120.509 80.12 120.125 80.808 119.677 81.56C119.405 82.04 119.013 82.704 118.501 83.552C118.901 83.68 119.261 83.84 119.581 84.032ZM97.3331 90.368C98.0531 91.616 100.109 91.44 103.501 89.84C106.605 88.368 109.909 86.192 113.413 83.312C110.677 83.216 108.037 83.464 105.493 84.056C102.581 84.728 100.285 85.752 98.6051 87.128C97.1811 88.296 96.7571 89.376 97.3331 90.368ZM115.357 82.832C115.965 82.912 116.653 83.04 117.421 83.216L118.069 82.208L118.741 81.176C119.253 80.36 119.677 79.664 120.013 79.088C120.973 77.488 121.669 76.136 122.101 75.032C120.981 77.272 118.733 79.872 115.357 82.832ZM119.581 84.032C119.677 84.112 119.701 84.2 119.653 84.296C119.605 84.392 119.525 84.424 119.413 84.392C119.013 84.216 118.621 84.08 118.237 83.984C116.605 86.672 115.661 88.512 115.405 89.504C115.021 90.928 115.325 91.76 116.317 92C116.701 92.08 117.101 92.032 117.517 91.856C117.933 91.664 118.245 91.368 118.453 90.968C118.517 90.904 118.589 90.904 118.669 90.968C118.765 91.016 118.789 91.088 118.741 91.184C118.421 91.744 117.957 92.112 117.349 92.288C116.789 92.448 116.237 92.416 115.693 92.192C115.117 91.968 114.701 91.592 114.445 91.064C114.157 90.472 114.125 89.776 114.349 88.976C114.653 87.904 115.573 86.144 117.109 83.696C116.469 83.568 115.669 83.464 114.709 83.384C111.061 86.456 107.541 88.768 104.149 90.32C100.405 92.016 97.9891 92.176 96.9011 90.8C95.8771 89.536 96.3331 88.024 98.2691 86.264C100.045 84.68 102.549 83.592 105.781 83C108.453 82.504 111.245 82.4 114.157 82.688C118.669 78.848 121.253 75.68 121.909 73.184C122.405 71.248 122.069 69.792 120.901 68.816C119.829 67.92 118.245 67.552 116.149 67.712C114.069 67.888 111.933 68.528 109.741 69.632C107.373 70.832 105.373 72.384 103.741 74.288C102.877 75.296 102.341 76.24 102.133 77.12C101.957 77.904 102.061 78.56 102.445 79.088C103.341 80.368 105.437 80.176 108.733 78.512C108.877 78.496 108.957 78.552 108.973 78.68C109.005 78.808 108.965 78.904 108.853 78.968C107.653 79.88 106.437 80.4 105.205 80.528C104.069 80.656 103.125 80.432 102.373 79.856C101.621 79.28 101.237 78.48 101.221 77.456C101.205 76.32 101.669 75.096 102.613 73.784C104.901 70.584 108.205 68.448 112.525 67.376C114.429 66.896 116.189 66.76 117.805 66.968C119.485 67.176 120.773 67.728 121.669 68.624V68.6C123.301 70.088 123.629 72.352 122.653 75.392C122.269 76.576 121.661 77.944 120.829 79.496C120.509 80.12 120.125 80.808 119.677 81.56C119.405 82.04 119.013 82.704 118.501 83.552C118.901 83.68 119.261 83.84 119.581 84.032ZM97.3331 90.368C98.0531 91.616 100.109 91.44 103.501 89.84C106.605 88.368 109.909 86.192 113.413 83.312C110.677 83.216 108.037 83.464 105.493 84.056C102.581 84.728 100.285 85.752 98.6051 87.128C97.1811 88.296 96.7571 89.376 97.3331 90.368ZM115.357 82.832C115.965 82.912 116.653 83.04 117.421 83.216L118.069 82.208L118.741 81.176C119.253 80.36 119.677 79.664 120.013 79.088C120.973 77.488 121.669 76.136 122.101 75.032C120.981 77.272 118.733 79.872 115.357 82.832Z" fill="white"/>
<path d="M73.5604 80.984L73.7524 80.648L73.9924 80.24C74.3604 79.648 74.5684 79.248 74.6164 79.04C74.8084 78.976 75.0004 78.968 75.1924 79.016C75.4324 79.064 75.6004 79.176 75.6964 79.352C75.6164 79.592 75.3524 80.072 74.9044 80.792L74.6164 81.248L74.3284 81.728C74.0884 82.112 73.8884 82.448 73.7284 82.736C72.8004 84.4 72.7044 85.376 73.4404 85.664C73.7604 85.84 74.4884 85.528 75.6244 84.728C76.6804 83.992 77.4324 83.328 77.8804 82.736C78.0724 82.736 78.1844 82.816 78.2164 82.976C76.5524 85.184 75.0244 86.296 73.6324 86.312C72.9284 86.312 72.4484 86.016 72.1924 85.424C71.9044 84.784 72.0564 83.84 72.6484 82.592C72.5364 82.704 72.4244 82.808 72.3124 82.904C70.9844 84.056 69.8724 84.464 68.9764 84.128C68.8964 84.096 68.8164 84.056 68.7364 84.008C68.6404 84.28 68.5524 84.568 68.4724 84.872C68.2164 85.704 68.0244 86.232 67.8964 86.456C67.8484 86.584 67.7284 86.6 67.5364 86.504C67.3284 86.408 67.2084 86.232 67.1764 85.976C67.0964 85.272 67.5524 84.032 68.5444 82.256L68.8324 81.752L69.0964 81.272C69.3364 80.856 69.5124 80.552 69.6244 80.36C69.9604 79.72 70.1524 79.272 70.2004 79.016C70.2004 78.904 70.2644 78.824 70.3924 78.776C70.5044 78.744 70.6404 78.752 70.8004 78.8C70.9604 78.848 71.0804 78.92 71.1604 79.016C71.2404 79.128 71.2484 79.248 71.1844 79.376C71.0884 79.728 70.7124 80.44 70.0564 81.512C69.9124 81.736 69.7844 81.944 69.6724 82.136C69.3044 82.984 69.2084 83.496 69.3844 83.672C69.5604 83.864 70.3364 83.448 71.7124 82.424C72.1604 82.104 72.6324 81.744 73.1284 81.344C73.2724 81.232 73.4164 81.112 73.5604 80.984Z" fill="white"/>
<path d="M68.2354 82.76C68.4114 82.744 68.5234 82.816 68.5714 82.976C66.7314 85.376 65.1154 86.576 63.7234 86.576C63.3874 86.576 63.0914 86.504 62.8354 86.36C62.5314 86.2 62.3474 85.976 62.2834 85.688C61.9634 84.504 62.3314 82.752 63.3874 80.432L63.0754 80.888L62.7394 81.368L62.0674 82.352C61.5394 83.088 61.0754 83.696 60.6754 84.176C59.6354 85.456 58.8674 86.064 58.3714 86C57.9554 85.936 57.6274 85.784 57.3874 85.544C57.1154 85.288 57.0274 84.976 57.1234 84.608C57.4114 83.536 58.1154 82.344 59.2354 81.032C60.4514 79.592 61.4674 78.944 62.2834 79.088C62.7474 79.152 63.0674 79.312 63.2434 79.568C63.8834 78.72 64.3954 78.12 64.7794 77.768C64.9394 77.704 65.1154 77.704 65.3074 77.768C65.5154 77.832 65.6674 77.952 65.7634 78.128C65.5394 78.464 65.2594 78.976 64.9234 79.664C64.5074 80.512 64.1554 81.312 63.8674 82.064C63.0514 84.24 62.9874 85.512 63.6754 85.88C63.9954 86.04 64.7394 85.696 65.9074 84.848C66.9954 84.064 67.7714 83.368 68.2354 82.76ZM58.2514 85.304C58.6194 85.336 59.2834 84.76 60.2434 83.576C60.5634 83.176 61.0034 82.592 61.5634 81.824L62.2354 80.888L62.9314 79.976C62.8354 79.672 62.6114 79.56 62.2594 79.64C61.8594 79.704 61.3234 80.12 60.6514 80.888C60.0594 81.544 59.4914 82.304 58.9474 83.168C58.1154 84.544 57.8834 85.256 58.2514 85.304Z" fill="white"/>
<path d="M48.6064 84.224C48.7984 83.792 48.9504 83.472 49.0624 83.264C49.2224 82.992 49.4064 82.704 49.6144 82.4L49.8784 81.992C49.9584 81.896 50.0464 81.776 50.1424 81.632C50.5104 81.12 50.6864 80.848 50.6704 80.816C50.6544 80.848 50.5744 80.952 50.4304 81.128C50.2704 81.336 50.0864 81.568 49.8784 81.824C49.3184 82.512 48.7584 83.152 48.1984 83.744C46.4704 85.536 45.2544 86.368 44.5504 86.24C44.1824 86.176 43.9744 85.96 43.9264 85.592C43.8304 84.888 44.1504 83.928 44.8864 82.712L45.0784 82.232C45.0784 82.12 45.1424 82.04 45.2704 81.992C45.3824 81.96 45.5184 81.968 45.6784 82.016C45.8384 82.064 45.9584 82.136 46.0384 82.232C46.1344 82.344 46.1424 82.464 46.0624 82.592L45.9424 82.952L45.6544 83.408C44.8384 84.816 44.5264 85.56 44.7184 85.64C44.9584 85.72 46.0224 84.864 47.9104 83.072C49.8464 81.216 50.9184 79.92 51.1264 79.184C51.1904 78.992 51.3584 78.992 51.6304 79.184C51.9024 79.392 52.0464 79.576 52.0624 79.736C52.0624 79.96 51.8944 80.376 51.5584 80.984C51.4304 81.224 51.2544 81.52 51.0304 81.872L50.7424 82.352L50.4544 82.808C50.3584 82.968 50.2544 83.152 50.1424 83.36C49.3104 84.8 48.9904 85.56 49.1824 85.64C49.4224 85.72 50.4864 84.864 52.3744 83.072C54.0064 81.504 55.0224 80.336 55.4224 79.568C55.5024 79.424 55.5584 79.296 55.5904 79.184C55.6064 79.152 55.6224 79.12 55.6384 79.088C55.6544 79.072 55.6784 79.056 55.7104 79.04C55.7904 79.008 55.9184 79.056 56.0944 79.184C56.3664 79.392 56.5104 79.576 56.5264 79.736C56.5264 79.96 56.3584 80.376 56.0224 80.984C55.8944 81.224 55.7184 81.52 55.4944 81.872L55.2064 82.352L54.9184 82.808C53.9424 84.44 53.5744 85.384 53.8144 85.64C53.9904 85.832 54.7664 85.416 56.1424 84.392C56.5904 84.072 57.0624 83.712 57.5584 83.312C57.7184 83.184 57.8704 83.056 58.0144 82.928C58.0624 82.896 58.1024 82.864 58.1344 82.832L58.1824 82.784C58.2464 82.736 58.3184 82.736 58.3984 82.784C58.4944 82.832 58.5184 82.904 58.4704 83L58.4224 83.048C58.4064 83.08 58.3744 83.128 58.3264 83.192C58.2144 83.32 58.0944 83.464 57.9664 83.624C57.5664 84.088 57.1584 84.504 56.7424 84.872C55.4144 86.024 54.3024 86.432 53.4064 86.096C52.5584 85.776 52.5984 84.832 53.5264 83.264C53.6864 82.992 53.8704 82.704 54.0784 82.4L54.3424 81.992C54.4224 81.896 54.5104 81.776 54.6064 81.632C54.9744 81.12 55.1504 80.848 55.1344 80.816C55.1184 80.848 55.0384 80.952 54.8944 81.128C54.7344 81.336 54.5504 81.568 54.3424 81.824C53.7824 82.512 53.2224 83.152 52.6624 83.744C50.9344 85.536 49.7184 86.368 49.0144 86.24C48.6464 86.176 48.4384 85.96 48.3904 85.592C48.3424 85.224 48.4144 84.768 48.6064 84.224Z" fill="white"/>
<path d="M36.7915 80C36.6954 80.368 36.3595 81.008 35.7835 81.92L35.4235 82.472L35.0635 83.072C34.7915 83.552 34.5675 84 34.3915 84.416C34.6475 84.112 35.0155 83.632 35.4955 82.976L36.0715 82.136L36.6715 81.32C37.6315 80.072 38.2875 79.48 38.6395 79.544C38.8475 79.576 39.0155 79.688 39.1435 79.88C39.2715 80.04 39.3355 80.2 39.3355 80.36C39.3355 80.584 39.2475 80.984 39.0715 81.56C38.9915 81.784 38.8955 82.048 38.7835 82.352L38.4955 83.192C37.9675 84.6 37.7514 85.328 37.8475 85.376C37.9275 85.408 38.5275 84.456 39.6475 82.52C40.1755 81.624 40.5915 80.96 40.8955 80.528C41.3275 79.92 41.6315 79.616 41.8075 79.616C41.9675 79.616 42.1355 79.72 42.3115 79.928C42.4715 80.12 42.5355 80.288 42.5035 80.432C42.4555 80.656 42.3515 81.032 42.1915 81.56C42.1435 81.736 42.0715 81.976 41.9755 82.28L41.7595 83.048C41.3755 84.312 41.1995 85.024 41.2315 85.184C41.3115 85.536 41.9355 85.424 43.1035 84.848C43.5035 84.656 43.9275 84.432 44.3755 84.176C44.5355 84.08 44.6875 83.984 44.8315 83.888C44.9594 83.808 45.0475 83.752 45.0955 83.72C45.2075 83.64 45.2955 83.648 45.3595 83.744C45.4075 83.84 45.3915 83.928 45.3115 84.008C45.2475 84.072 45.1675 84.152 45.0715 84.248C44.9275 84.36 44.7835 84.48 44.6395 84.608C44.2395 84.928 43.8395 85.2 43.4395 85.424C42.3035 86.064 41.4395 86.168 40.8475 85.736C40.5115 85.496 40.3595 85.056 40.3915 84.416C40.3915 83.904 40.5115 83.28 40.7515 82.544C40.8475 82.256 40.9515 81.952 41.0635 81.632C41.1595 81.392 41.2635 81.136 41.3755 80.864L41.6635 80.144C41.6155 80.16 41.4075 80.504 41.0395 81.176L40.9195 81.416L40.7755 81.656L40.4875 82.184C40.2475 82.632 40.0395 83.016 39.8635 83.336C38.6635 85.416 37.8635 86.392 37.4635 86.264C36.9835 86.104 36.7594 85.68 36.7915 84.992C36.8235 84.464 37.0075 83.76 37.3435 82.88C37.4715 82.576 37.6235 82.232 37.7995 81.848L38.0155 81.368C38.0955 81.176 38.1515 81.04 38.1835 80.96C38.4235 80.416 38.4874 80.168 38.3755 80.216C38.0875 80.328 37.2794 81.352 35.9515 83.288C35.4555 84.008 34.9594 84.76 34.4635 85.544C34.0154 86.232 33.6955 86.736 33.5035 87.056C33.4555 87.2 33.3355 87.224 33.1435 87.128C32.9355 87.032 32.8155 86.856 32.7835 86.6C32.6875 85.896 33.1595 84.608 34.1995 82.736L34.4875 82.184L34.7755 81.68C35.0315 81.248 35.2155 80.928 35.3275 80.72C35.6795 80.048 35.8795 79.584 35.9275 79.328C35.9435 79.216 35.9995 79.16 36.0955 79.16C36.1915 79.16 36.3035 79.2 36.4315 79.28C36.5595 79.376 36.6555 79.488 36.7195 79.616C36.7995 79.744 36.8235 79.872 36.7915 80Z" fill="white"/>
<path d="M34.3596 82.784C34.4076 82.704 34.4796 82.704 34.5756 82.784C34.6716 82.848 34.6956 82.92 34.6476 83C34.4076 83.416 34.0396 83.832 33.5436 84.248C32.7916 84.84 31.5836 85.504 29.9196 86.24C29.5036 87.312 29.1756 88.152 28.9356 88.76C28.5516 89.704 28.1996 90.528 27.8796 91.232C27.0636 93.008 26.2876 94.328 25.5516 95.192C24.5276 96.376 23.5036 97 22.4796 97.064C21.5356 97.128 20.8396 96.752 20.3916 95.936C19.9276 95.104 19.9036 94.112 20.3196 92.96C20.7836 91.632 21.7596 90.392 23.2476 89.24C24.9116 87.96 26.8476 86.84 29.0556 85.88L29.3916 84.92C29.4716 84.728 29.5676 84.488 29.6796 84.2L29.8236 83.792L29.9916 83.384C30.2476 82.696 30.4636 82.136 30.6396 81.704C29.6316 82.936 28.6396 83.984 27.6636 84.848C26.5276 85.856 25.7036 86.312 25.1916 86.216C24.8076 86.152 24.5916 85.944 24.5436 85.592C24.4636 84.888 24.8316 83.864 25.6476 82.52L25.8876 82.136L26.1276 81.776C26.3196 81.472 26.4636 81.232 26.5596 81.056C26.8476 80.56 27.0156 80.184 27.0636 79.928C27.0636 79.816 27.1276 79.736 27.2556 79.688C27.3676 79.656 27.5036 79.664 27.6636 79.712C27.8236 79.76 27.9436 79.832 28.0236 79.928C28.1196 80.04 28.1276 80.16 28.0476 80.288C27.9996 80.464 27.7996 80.856 27.4476 81.464C27.3356 81.656 27.1676 81.936 26.9436 82.304L26.6796 82.76L26.4156 83.192C25.5036 84.728 25.1516 85.536 25.3596 85.616C25.6316 85.728 26.5836 85.008 28.2156 83.456C29.8956 81.872 31.0396 80.552 31.6476 79.496L31.7436 79.328L31.8156 79.184V79.16C31.8316 79.144 31.8556 79.104 31.8876 79.04C31.9836 78.928 32.1676 78.92 32.4396 79.016C32.6796 79.112 32.8316 79.224 32.8956 79.352C32.3836 80.088 31.5516 81.96 30.3996 84.968C30.3356 85.128 30.2956 85.248 30.2796 85.328C31.3836 84.8 32.3116 84.312 33.0636 83.864C33.5436 83.576 33.9756 83.216 34.3596 82.784ZM24.5676 94.808C26.0396 93.08 27.4236 90.392 28.7196 86.744C26.5916 87.672 24.9036 88.688 23.6556 89.792C22.4076 90.88 21.5356 92 21.0396 93.152C20.6076 94.144 20.5116 94.976 20.7516 95.648C20.9916 96.304 21.4556 96.584 22.1436 96.488C22.8956 96.376 23.7036 95.816 24.5676 94.808Z" fill="white"/>
<path d="M36.7127 67.232C36.9847 67.248 37.1207 67.44 37.1207 67.808C37.1047 68.16 36.9687 68.328 36.7127 68.312C35.5287 68.04 33.4087 68.856 30.3527 70.76C29.3927 71.384 27.8887 72.44 25.8407 73.928C23.4887 75.64 21.1687 77.384 18.8807 79.16C20.4167 79.544 21.2407 80.416 21.3527 81.776C21.4007 82.288 21.3447 82.928 21.1847 83.696L20.9687 84.728L20.7047 85.76C20.1767 87.808 20.0487 89.216 20.3207 89.984C20.5287 90.528 20.9527 90.8 21.5927 90.8C22.2487 90.784 22.8567 90.456 23.4167 89.816C23.4807 89.752 23.5607 89.752 23.6567 89.816C23.7367 89.88 23.7607 89.96 23.7287 90.056C23.1847 90.952 22.4887 91.408 21.6407 91.424C21.3047 91.44 20.9687 91.384 20.6327 91.256C20.3607 91.16 20.1207 91.04 19.9127 90.896C19.1607 90.352 18.7927 89.528 18.8087 88.424C18.8247 87.736 19.0407 86.672 19.4567 85.232L19.7207 84.296L20.0087 83.384C20.2007 82.68 20.2967 82.112 20.2967 81.68C20.3287 80.544 19.7207 79.864 18.4727 79.64C16.9687 82.024 15.1367 84.328 12.9767 86.552C10.8967 88.696 9.0727 90.2 7.5047 91.064C6.5127 91.608 5.8407 91.752 5.4887 91.496C4.9607 91.144 5.1447 90.416 6.0407 89.312C7.7207 87.216 11.5847 83.76 17.6327 78.944C20.7047 73.984 21.3207 70.608 19.4807 68.816C18.2807 67.648 16.5287 67.248 14.2247 67.616C12.1607 67.952 10.0327 68.816 7.8407 70.208C5.6647 71.6 4.0247 73.128 2.9207 74.792C1.7047 76.6 1.4247 78.16 2.0807 79.472C2.4167 80.128 3.2647 80.56 4.6247 80.768C5.8887 80.96 7.1367 80.904 8.3687 80.6C8.5127 80.584 8.5927 80.648 8.6087 80.792C8.6407 80.92 8.6007 81.008 8.4887 81.056C6.9047 81.696 5.4407 81.864 4.0967 81.56C2.7847 81.272 1.9047 80.624 1.4567 79.616C0.672703 77.872 0.864703 76.016 2.0327 74.048C3.1047 72.272 4.7607 70.704 7.0007 69.344C9.2407 68 11.5127 67.2 13.8167 66.944C16.3127 66.672 18.3447 67.128 19.9127 68.312C22.0407 69.928 22.0407 72.872 19.9127 77.144C24.3767 73.672 27.6727 71.256 29.8007 69.896C32.9047 67.896 35.2087 67.008 36.7127 67.232ZM7.4087 90.272C10.0647 88.464 12.8567 85.584 15.7847 81.632C11.5607 85.056 8.6487 87.672 7.0487 89.48C6.2647 90.344 5.8487 90.872 5.8007 91.064C5.7047 91.336 6.2407 91.072 7.4087 90.272Z" fill="white"/>
<path fillRule="evenodd" clipRule="evenodd" d="M105.328 3.16384V0C103.786 0.10546 101.885 0.21092 99.6243 0.31638C97.3634 0.42184 94.897 0.47457 92.2251 0.47457H86.5216C84.5691 0.36911 82.5652 0.31638 80.5098 0.31638C78.4545 0.21092 76.4506 0.10546 74.498 0V3.16384C78.8142 3.2693 81.6403 4.16572 82.9762 5.85311C84.3122 7.43503 84.3635 9.7552 83.1304 12.8135C81.8972 15.8719 79.585 19.6158 76.1937 24.0452L61.3955 43.3446C59.4429 45.8757 56.9765 47.985 53.9963 49.6723C51.257 51.1783 47.8657 52.0153 43.8225 52.1831V16.7684C43.8225 12.8663 44.1308 10.0189 44.7474 8.22598C45.364 6.32768 46.5458 5.06215 48.2928 4.42937C50.1426 3.69115 52.8145 3.2693 56.3085 3.16384V0C53.945 0.10546 50.9648 0.21092 47.3679 0.31638C43.8739 0.42184 40.3285 0.47457 36.7317 0.47457C32.7238 0.47457 28.9729 0.42184 25.4789 0.31638C21.9848 0.21092 19.1588 0.10546 17.0007 0V3.16384C20.4947 3.2693 23.1153 3.69115 24.8623 4.42937C26.7121 5.06215 27.9453 6.32768 28.5618 8.22598C29.1784 10.0189 29.4867 12.8663 29.4867 16.7684V65H43.8225V55.3971C46.114 55.5255 48.0153 55.8319 49.526 56.3164C51.273 56.8437 52.9173 57.9511 54.4587 59.6384C55.7639 60.8941 57.1985 62.6813 58.7626 65H73.9797L61.9779 47.7566L87.1382 14.7118C90.1184 10.8098 93.0986 8.01506 96.0788 6.32767C99.059 4.6403 102.142 3.58569 105.328 3.16384ZM94.1643 94L94.2847 94.173L94.3522 94H98.4031C98.1342 95.1518 97.9456 96.2298 97.8373 97.2341C97.7646 97.8853 97.7225 98.5059 97.7112 99.0959L97.7745 99.1868C99.5215 101.823 101.423 103.879 103.478 105.356C105.533 106.833 108.154 107.992 111.34 108.836V108.856L111.426 108.859V112L111.34 111.994V112C111.192 111.987 111.043 111.975 110.892 111.963C108.101 111.778 105.172 111.686 102.103 111.686L101.698 111.672C98.9108 111.593 96.4384 111.546 94.2812 111.531C93.936 111.529 93.594 111.529 93.2553 111.529C92.4809 111.529 91.7384 111.533 91.0278 111.542C89.8089 111.563 88.4392 111.602 86.9185 111.662C86.7637 111.669 86.6113 111.677 86.4612 111.686C84.6705 111.686 82.9851 111.79 81.4051 112V111.79C80.0429 111.841 78.5627 111.911 76.9644 112V108.836C80.4584 108.626 82.6679 107.992 83.5928 106.937C84.5177 105.883 84.158 104.143 82.5137 101.718L77.523 94H94.1643ZM43.8225 94H29.4867V95.2316C29.4867 99.0279 29.1784 101.876 28.5618 103.774C27.9453 105.672 26.7121 106.937 24.8623 107.571C23.1153 108.204 20.4947 108.626 17.0007 108.836V112C19.1588 111.789 21.9848 111.684 25.4789 111.684C28.9729 111.578 32.7238 111.526 36.7317 111.526C40.3285 111.526 43.8739 111.578 47.3679 111.684C50.9648 111.684 53.945 111.789 56.3085 112V108.836C52.8145 108.626 50.1426 108.204 48.2928 107.571C46.5458 106.937 45.364 105.672 44.7474 103.774C44.1308 101.876 43.8225 99.0279 43.8225 95.2316V94ZM154.566 94L155.193 95.6634C157.299 101.004 157.615 104.512 156.14 106.188C154.666 107.758 151.242 108.649 145.87 108.859V112C148.082 111.79 150.979 111.686 154.56 111.686C158.142 111.581 161.987 111.529 166.094 111.529C169.149 111.529 172.203 111.581 175.259 111.686C178.314 111.686 180.894 111.79 183.001 112V108.859C181.315 108.754 179.472 108.073 177.471 106.816C175.469 105.455 173.678 102.784 172.098 98.8048L170.223 94H154.566ZM158.908 65L133.546 0H131.018L105.664 65H109.185L126.661 19.8684L143.65 65H158.908Z" fill="white"/>
</svg>
